name rise35.5848peak51.9257fall54.8793.mot
datacolumns 19
datarows 24
range 4.35164500000000 4.38997800000000
endheader
time	ground_force1_vx	ground_force1_vy	ground_force1_vz	ground_force1_px	ground_force1_py	ground_force1_pz	ground_force2_vx	ground_force2_vy	ground_force2_vz	ground_force2_px	ground_force2_py	ground_force2_pz	ground_torque1_x	ground_torque1_y	ground_torque1_z	ground_torque2_x	ground_torque2_y	ground_torque2_z	
4.35164500000000	16.72001200000000	708.10401400000001	41.84741900000000	0.24018200000000	0.00000000000000	0.11832600000000	0.00000000000000	0.00000000000000	0.00000000000000	0.00000000000000	0.00000000000000	0.00000000000000	0.00000000000000	17.43049500000000	0.00000000000000	0.00000000000000	0.00000000000000	0.00000000000000	
4.35331100000000	16.25549700000000	708.94725100000005	41.76286900000000	0.23923000000000	0.00000000000000	0.11822800000000	0.00000000000000	0.00000000000000	0.00000000000000	0.00000000000000	0.00000000000000	0.00000000000000	0.00000000000000	17.44541100000000	0.00000000000000	0.00000000000000	0.00000000000000	0.00000000000000	
4.35498200000000	15.77834700000000	709.79929600000003	41.68041300000000	0.23825000000000	0.00000000000000	0.11813100000000	0.00000000000000	0.00000000000000	0.00000000000000	0.00000000000000	0.00000000000000	0.00000000000000	0.00000000000000	17.46414200000000	0.00000000000000	0.00000000000000	0.00000000000000	0.00000000000000	
4.35664100000000	15.28868600000000	710.65948000000003	41.60006300000000	0.23724500000000	0.00000000000000	0.11803700000000	0.00000000000000	0.00000000000000	0.00000000000000	0.00000000000000	0.00000000000000	0.00000000000000	0.00000000000000	17.48669800000000	0.00000000000000	0.00000000000000	0.00000000000000	0.00000000000000	
4.35831100000000	14.78668300000000	711.52723600000002	41.52183800000000	0.23621400000000	0.00000000000000	0.11794300000000	0.00000000000000	0.00000000000000	0.00000000000000	0.00000000000000	0.00000000000000	0.00000000000000	0.00000000000000	17.51308200000000	0.00000000000000	0.00000000000000	0.00000000000000	0.00000000000000	
4.35997800000000	14.27255100000000	712.40209900000002	41.44577000000000	0.23515900000000	0.00000000000000	0.11785200000000	0.00000000000000	0.00000000000000	0.00000000000000	0.00000000000000	0.00000000000000	0.00000000000000	0.00000000000000	17.54329300000000	0.00000000000000	0.00000000000000	0.00000000000000	0.00000000000000	
4.36164500000000	13.74654800000000	713.28369999999995	41.37189700000000	0.23407900000000	0.00000000000000	0.11776300000000	0.00000000000000	0.00000000000000	0.00000000000000	0.00000000000000	0.00000000000000	0.00000000000000	0.00000000000000	17.57732700000000	0.00000000000000	0.00000000000000	0.00000000000000	0.00000000000000	
4.36331500000000	13.20897500000000	714.17176700000005	41.30027300000000	0.23297700000000	0.00000000000000	0.11767500000000	0.00000000000000	0.00000000000000	0.00000000000000	0.00000000000000	0.00000000000000	0.00000000000000	0.00000000000000	17.61517600000000	0.00000000000000	0.00000000000000	0.00000000000000	0.00000000000000	
4.36498300000000	12.66017300000000	715.06611899999996	41.23096000000000	0.23185400000000	0.00000000000000	0.11759000000000	0.00000000000000	0.00000000000000	0.00000000000000	0.00000000000000	0.00000000000000	0.00000000000000	0.00000000000000	17.65682700000000	0.00000000000000	0.00000000000000	0.00000000000000	0.00000000000000	
4.36664800000000	12.10052200000000	715.96666600000003	41.16403200000000	0.23071000000000	0.00000000000000	0.11750600000000	0.00000000000000	0.00000000000000	0.00000000000000	0.00000000000000	0.00000000000000	0.00000000000000	0.00000000000000	17.70226300000000	0.00000000000000	0.00000000000000	0.00000000000000	0.00000000000000	
4.36830800000000	11.53044100000000	716.87340099999994	41.09957600000000	0.22954700000000	0.00000000000000	0.11742500000000	0.00000000000000	0.00000000000000	0.00000000000000	0.00000000000000	0.00000000000000	0.00000000000000	0.00000000000000	17.75146200000000	0.00000000000000	0.00000000000000	0.00000000000000	0.00000000000000	
4.36999300000000	10.95038400000000	717.78639999999996	41.03768800000000	0.22836700000000	0.00000000000000	0.11734500000000	0.00000000000000	0.00000000000000	0.00000000000000	0.00000000000000	0.00000000000000	0.00000000000000	0.00000000000000	17.80439700000000	0.00000000000000	0.00000000000000	0.00000000000000	0.00000000000000	
4.37164700000000	10.36083700000000	718.70581500000003	40.97847800000000	0.22717100000000	0.00000000000000	0.11726800000000	0.00000000000000	0.00000000000000	0.00000000000000	0.00000000000000	0.00000000000000	0.00000000000000	0.00000000000000	17.86103600000000	0.00000000000000	0.00000000000000	0.00000000000000	0.00000000000000	
4.37331000000000	9.76231900000000	719.63187400000004	40.92206900000000	0.22596100000000	0.00000000000000	0.11719200000000	0.00000000000000	0.00000000000000	0.00000000000000	0.00000000000000	0.00000000000000	0.00000000000000	0.00000000000000	17.92134400000000	0.00000000000000	0.00000000000000	0.00000000000000	0.00000000000000	
4.37497400000000	9.15537700000000	720.56486900000004	40.86859300000000	0.22473800000000	0.00000000000000	0.11711900000000	0.00000000000000	0.00000000000000	0.00000000000000	0.00000000000000	0.00000000000000	0.00000000000000	0.00000000000000	17.98527900000000	0.00000000000000	0.00000000000000	0.00000000000000	0.00000000000000	
4.37664400000000	8.54058300000000	721.50515900000005	40.81819600000000	0.22350500000000	0.00000000000000	0.11704800000000	0.00000000000000	0.00000000000000	0.00000000000000	0.00000000000000	0.00000000000000	0.00000000000000	0.00000000000000	18.05279500000000	0.00000000000000	0.00000000000000	0.00000000000000	0.00000000000000	
4.37831500000000	7.91853500000000	722.45316100000002	40.77103500000000	0.22226300000000	0.00000000000000	0.11697800000000	0.00000000000000	0.00000000000000	0.00000000000000	0.00000000000000	0.00000000000000	0.00000000000000	0.00000000000000	18.12383800000000	0.00000000000000	0.00000000000000	0.00000000000000	0.00000000000000	
4.37998000000000	7.28984900000000	723.40934500000003	40.72727700000000	0.22101400000000	0.00000000000000	0.11691100000000	0.00000000000000	0.00000000000000	0.00000000000000	0.00000000000000	0.00000000000000	0.00000000000000	0.00000000000000	18.19835400000000	0.00000000000000	0.00000000000000	0.00000000000000	0.00000000000000	
4.38165000000000	6.65516000000000	724.37423000000001	40.68710300000000	0.21976000000000	0.00000000000000	0.11684500000000	0.00000000000000	0.00000000000000	0.00000000000000	0.00000000000000	0.00000000000000	0.00000000000000	0.00000000000000	18.27627800000000	0.00000000000000	0.00000000000000	0.00000000000000	0.00000000000000	
4.38331200000000	6.01511900000000	725.34837900000002	40.65070100000000	0.21850200000000	0.00000000000000	0.11678200000000	0.00000000000000	0.00000000000000	0.00000000000000	0.00000000000000	0.00000000000000	0.00000000000000	0.00000000000000	18.35754300000000	0.00000000000000	0.00000000000000	0.00000000000000	0.00000000000000	
4.38497900000000	5.37039000000000	726.33239100000003	40.61827300000000	0.21724400000000	0.00000000000000	0.11672000000000	0.00000000000000	0.00000000000000	0.00000000000000	0.00000000000000	0.00000000000000	0.00000000000000	0.00000000000000	18.44207700000000	0.00000000000000	0.00000000000000	0.00000000000000	0.00000000000000	
4.38664600000000	4.72164300000000	727.32689700000003	40.59002600000000	0.21598500000000	0.00000000000000	0.11666000000000	0.00000000000000	0.00000000000000	0.00000000000000	0.00000000000000	0.00000000000000	0.00000000000000	0.00000000000000	18.52980100000000	0.00000000000000	0.00000000000000	0.00000000000000	0.00000000000000	
4.38831700000000	4.06955900000000	728.33255499999996	40.56618000000000	0.21472900000000	0.00000000000000	0.11660200000000	0.00000000000000	0.00000000000000	0.00000000000000	0.00000000000000	0.00000000000000	0.00000000000000	0.00000000000000	18.62063000000000	0.00000000000000	0.00000000000000	0.00000000000000	0.00000000000000	
4.38997800000000	3.41482000000000	729.35004500000002	40.54696200000000	0.21347700000000	0.00000000000000	0.11654500000000	0.00000000000000	0.00000000000000	0.00000000000000	0.00000000000000	0.00000000000000	0.00000000000000	0.00000000000000	18.71447600000000	0.00000000000000	0.00000000000000	0.00000000000000	0.00000000000000	
